<?xml version="1.0" standalone="no"?>
<!DOCTYPE svg PUBLIC "-//W3C//DTD SVG 20010904//EN"
 "http://www.w3.org/TR/2001/REC-SVG-20010904/DTD/svg10.dtd">
<svg version="1.0" xmlns="http://www.w3.org/2000/svg"
 width="700.000000pt" height="700.000000pt" viewBox="0 0 700.000000 700.000000"
 preserveAspectRatio="xMidYMid meet">
<metadata>
Created by potrace 1.11, written by Peter Selinger 2001-2013
</metadata>
<g transform="translate(0.000000,700.000000) scale(0.100000,-0.100000)"
fill="#000000" stroke="none">
<path d="M2851 6984 c-171 -45 -303 -192 -330 -364 -5 -36 -9 -83 -7 -105 5
-58 34 -153 63 -202 l24 -42 -38 -10 c-21 -5 -76 -19 -123 -30 -213 -51 -556
-189 -755 -303 -86 -49 -281 -174 -295 -188 -3 -3 -40 -31 -83 -63 -198 -147
-421 -370 -584 -584 -270 -353 -452 -733 -562 -1169 -25 -101 -37 -160 -66
-343 -27 -165 -27 -675 0 -820 1 -9 6 -41 10 -71 20 -158 95 -449 157 -615
119 -319 295 -629 504 -889 101 -125 313 -344 424 -436 41 -34 84 -70 95 -79
49 -41 229 -163 320 -218 360 -217 773 -365 1164 -419 25 -3 57 -8 71 -10 122
-19 501 -26 670 -12 297 25 617 101 900 214 92 36 369 173 440 216 246 151
429 296 630 498 313 314 533 648 694 1051 50 127 53 146 31 189 -39 75 -151
73 -189 -4 -8 -17 -36 -83 -62 -146 -284 -695 -826 -1244 -1554 -1573 -101
-46 -287 -110 -415 -143 -16 -4 -32 -8 -35 -9 -4 -1 -66 -15 -90 -20 -3 -1
-25 -5 -50 -9 -25 -5 -54 -10 -65 -13 -11 -2 -81 -12 -155 -22 -143 -20 -515
-26 -635 -11 -244 31 -338 49 -510 96 -160 44 -177 18 166 246 335 222 963
638 1187 786 163 107 199 140 233 208 34 72 33 179 -4 251 l-26 53 87 57 c48
31 112 67 143 80 65 26 177 42 234 31 22 -3 92 -5 155 -4 127 4 215 26 307 77
46 25 358 230 983 645 225 150 276 181 268 168 -3 -5 -9 -36 -12 -69 -8 -79
-13 -117 -26 -197 -13 -76 -4 -107 42 -141 50 -37 126 -15 155 44 21 42 59
343 62 491 1 25 22 42 184 149 100 67 201 140 225 163 200 191 200 517 1 716
-55 55 -183 130 -222 130 -21 0 -21 2 -3 44 19 46 37 137 38 189 3 219 -137
416 -342 483 l-46 15 23 70 c89 264 -45 546 -303 639 l-62 22 14 27 c31 61 47
155 41 238 -25 351 -385 569 -707 426 -37 -16 -287 -176 -520 -333 l-55 -37
-60 28 c-216 100 -312 136 -520 195 -49 14 -99 28 -110 30 -71 14 -157 33
-159 36 -87 128 -210 273 -363 425 -197 197 -244 234 -331 265 -72 26 -197 32
-271 12z m217 -224 c28 -13 104 -81 225 -202 101 -101 194 -198 208 -216 13
-19 29 -39 35 -45 20 -22 129 -182 152 -222 72 -129 129 -255 202 -450 46
-121 90 -227 99 -235 27 -25 64 -37 96 -30 17 4 224 135 460 291 723 479 749
496 785 515 26 14 56 19 115 19 67 0 88 -5 132 -27 165 -87 205 -309 80 -442
-23 -25 -124 -99 -223 -165 -195 -130 -212 -148 -200 -215 4 -21 19 -45 38
-61 53 -45 91 -33 249 72 144 97 185 115 257 116 207 2 352 -222 263 -405 -33
-70 -72 -103 -264 -229 -96 -63 -182 -126 -191 -140 -45 -76 1 -162 87 -162
37 0 59 11 167 83 156 105 211 129 290 124 236 -13 356 -274 213 -462 -14 -18
-111 -90 -216 -160 -117 -78 -197 -138 -209 -157 -44 -72 25 -172 109 -159 13
2 83 43 155 91 73 48 158 96 188 106 130 45 275 -16 341 -143 20 -37 24 -60
24 -130 0 -141 -31 -179 -265 -332 -80 -52 -388 -256 -685 -453 -1050 -696
-967 -643 -1055 -669 -60 -17 -105 -19 -285 -12 -185 8 -289 -23 -466 -138
l-100 -66 -336 508 c-185 279 -455 686 -600 906 l-264 398 36 157 c20 86 38
167 41 181 4 21 27 121 39 170 9 38 97 417 100 433 3 10 6 26 9 35 3 9 7 28
10 42 2 14 21 95 41 180 20 85 39 166 41 180 3 14 9 52 15 85 15 82 19 315 8
395 -16 113 -19 133 -34 198 -34 145 -105 318 -188 453 -56 92 -72 148 -63
211 22 149 195 241 334 178z m-327 -782 c53 -166 64 -241 64 -423 0 -154 -6
-209 -35 -329 -35 -148 -198 -849 -204 -883 -7 -32 -36 -157 -47 -196 l-10
-37 -37 29 c-45 36 -118 61 -176 61 -98 0 -73 15 -856 -506 -206 -137 -379
-251 -385 -254 -5 -3 -177 -116 -382 -253 -205 -136 -373 -247 -375 -247 -16
0 -10 501 7 552 2 7 6 42 10 78 3 36 19 128 36 205 83 396 244 763 482 1100
39 55 73 102 76 105 3 3 26 30 51 60 407 501 1012 872 1636 1004 124 26 114
31 145 -66z m1325 17 c90 -26 270 -91 345 -124 l41 -19 -165 -110 c-137 -91
-167 -108 -172 -94 -4 9 -26 69 -50 133 -24 65 -57 144 -73 178 -16 34 -26 61
-22 61 4 0 48 -11 96 -25z m-1714 -2042 c14 -16 113 -161 220 -323 225 -340
547 -828 963 -1456 161 -243 296 -451 300 -463 17 -55 7 -64 -331 -287 -180
-119 -331 -217 -338 -220 -6 -2 -68 80 -137 184 -69 103 -336 502 -593 887
-258 385 -481 712 -497 728 -44 41 -100 38 -145 -7 -29 -29 -34 -41 -32 -73 2
-41 -40 24 719 -1106 195 -290 360 -537 367 -550 7 -12 39 -60 71 -107 l58
-84 -46 -30 c-25 -17 -47 -34 -49 -38 -2 -5 -7 -8 -11 -8 -5 0 -163 -103 -352
-228 -189 -125 -369 -245 -400 -265 -31 -20 -61 -37 -66 -37 -15 0 -142 60
-243 115 -81 44 -323 200 -352 227 -7 7 -47 40 -88 72 -107 84 -361 343 -457
467 -178 229 -345 526 -438 779 -15 41 -31 84 -36 95 -33 80 -121 456 -110
472 3 5 64 48 136 95 72 47 256 168 411 270 463 306 527 348 533 347 3 0 35
-45 71 -100 36 -55 77 -106 92 -114 75 -41 158 10 158 96 0 33 -2 37 -82 157
l-57 86 317 209 c174 115 326 215 337 222 34 23 78 18 107 -12z"/>
</g>
</svg>
