<?xml version="1.0" encoding="iso-8859-1"?>
<!-- Generator: Adobe Illustrator 18.0.0, SVG Export Plug-In . SVG Version: 6.00 Build 0)  -->
<!DOCTYPE svg PUBLIC "-//W3C//DTD SVG 1.1//EN" "http://www.w3.org/Graphics/SVG/1.1/DTD/svg11.dtd">
<svg version="1.1" id="Capa_1" xmlns="http://www.w3.org/2000/svg" xmlns:xlink="http://www.w3.org/1999/xlink" x="0px" y="0px"
	 viewBox="0 0 60 60" style="enable-background:new 0 0 60 60;" xml:space="preserve">
<g>
	<path d="M40.068,13.465L5.93,13.535c-3.27,0-5.93,2.66-5.93,5.93v21.141c0,3.27,2.66,5.929,5.93,5.929H12v10
		c0,0.413,0.254,0.784,0.64,0.933c0.117,0.045,0.239,0.067,0.36,0.067c0.276,0,0.547-0.115,0.74-0.327l9.704-10.675l16.626-0.068
		c3.27,0,5.93-2.66,5.93-5.929V19.395C46,16.125,43.34,13.465,40.068,13.465z M10,23.465h13c0.553,0,1,0.448,1,1s-0.447,1-1,1H10
		c-0.553,0-1-0.448-1-1S9.447,23.465,10,23.465z M36,37.465H10c-0.553,0-1-0.448-1-1s0.447-1,1-1h26c0.553,0,1,0.448,1,1
		S36.553,37.465,36,37.465z M36,31.465H10c-0.553,0-1-0.448-1-1s0.447-1,1-1h26c0.553,0,1,0.448,1,1S36.553,31.465,36,31.465z"/>
	<path d="M54.072,2.535L19.93,2.465c-3.27,0-5.93,2.66-5.93,5.93v3.124l26.064-0.054c4.377,0,7.936,3.557,7.936,7.93v21.07v0.071
		v2.087l3.26,3.586c0.193,0.212,0.464,0.327,0.74,0.327c0.121,0,0.243-0.022,0.36-0.067c0.386-0.149,0.64-0.52,0.64-0.933v-10h1.07
		c3.27,0,5.93-2.66,5.93-5.929V8.465C60,5.195,57.34,2.535,54.072,2.535z"/>
</g>
<g>
</g>
<g>
</g>
<g>
</g>
<g>
</g>
<g>
</g>
<g>
</g>
<g>
</g>
<g>
</g>
<g>
</g>
<g>
</g>
<g>
</g>
<g>
</g>
<g>
</g>
<g>
</g>
<g>
</g>
</svg>
