<svg id="Solid" height="512" viewBox="0 0 512 512" width="512" xmlns="http://www.w3.org/2000/svg"><path d="m319.3 304a8.009 8.009 0 0 0 8 8h32a8.009 8.009 0 0 0 8-8v-8h-48z"/><path d="m407.3 169.846a66.209 66.209 0 0 0 -19.73-47.546 62.694 62.694 0 0 0 -44.27-18.3c-.305 0-.609 0-.913.007-34.855.5-63.156 30.092-63.088 65.971a66.505 66.505 0 0 0 27.583 54.022 20.316 20.316 0 0 1 8.417 16.551v7.449h56v-7.452a20.343 20.343 0 0 1 8.433-16.562 66.5 66.5 0 0 0 27.568-54.14zm-22.493-1.846a8.005 8.005 0 0 1 -7.7-5.835 36.163 36.163 0 0 0 -20.839-23.624 8 8 0 0 1 6.058-14.809 52.282 52.282 0 0 1 30.184 34.1 8.006 8.006 0 0 1 -7.7 10.169z"/><path d="m472 440h-105.371a24.042 24.042 0 0 1 -22.629 16 8.026 8.026 0 0 1 -1.569-.155l-80-16a8 8 0 0 1 -2.4-.9l-56-32a8 8 0 1 1 7.938-13.892l54.873 31.356 77.816 15.564a8.012 8.012 0 0 0 7.342-7.973v-15.756c-.761-2-6.013-6.184-10.994-8.79l-79.3-23.791a8.013 8.013 0 0 1 -3.052-1.716c-21.631-19.456-84.383-69.947-114.654-69.947h-64v128h24c2.251 0 12.448 1.9 84.631 16.151 36.088 7.125 76.914 15.185 81.905 15.849h201.464a8.009 8.009 0 0 0 8-8v-16a8.009 8.009 0 0 0 -8-8z"/><path d="m32 296h32v160h-32z"/><path d="m375.3 264h-64a8 8 0 0 0 0 16h64a8 8 0 0 0 0-16z"/><path d="m343.3 72a8 8 0 0 1 -8-8v-16a8 8 0 0 1 16 0v16a8 8 0 0 1 -8 8z"/><path d="m297.749 81.685a8 8 0 0 1 -7.313-4.748l-6.508-14.617a8 8 0 0 1 14.617-6.508l6.508 14.617a8.005 8.005 0 0 1 -7.3 11.256z"/><path d="m260.064 109.058a7.97 7.97 0 0 1 -5.351-2.058l-11.89-10.7a8 8 0 0 1 10.706-11.891l11.89 10.706a8 8 0 0 1 -5.355 13.946z"/><path d="m236.782 149.392a7.985 7.985 0 0 1 -2.473-.394l-15.217-4.943a8 8 0 1 1 4.943-15.217l15.217 4.943a8 8 0 0 1 -2.47 15.611z"/><path d="m215.99 197.381a8 8 0 0 1 -.826-15.957l15.912-1.673a8 8 0 0 1 1.673 15.912l-15.913 1.673a8.049 8.049 0 0 1 -.846.045z"/><path d="m470.607 197.381a8.077 8.077 0 0 1 -.846-.045l-15.912-1.673a8 8 0 1 1 1.673-15.912l15.913 1.673a8 8 0 0 1 -.828 15.957z"/><path d="m449.815 149.392a8 8 0 0 1 -2.469-15.611l15.216-4.943a8 8 0 1 1 4.944 15.217l-15.217 4.945a7.987 7.987 0 0 1 -2.474.392z"/><path d="m426.534 109.058a8 8 0 0 1 -5.356-13.946l11.889-10.706a8 8 0 1 1 10.707 11.894l-11.889 10.7a7.973 7.973 0 0 1 -5.351 2.058z"/><path d="m388.849 81.685a8.005 8.005 0 0 1 -7.3-11.256l6.508-14.617a8 8 0 0 1 14.613 6.508l-6.508 14.617a8 8 0 0 1 -7.313 4.748z"/></svg>